<svg xmlns="http://www.w3.org/2000/svg" style="display: none;"><symbol id="log" viewBox="0 0 64 64"><title>log</title><path d="M55,15H54V9a3,3,0,0,0-3-3H50V5a3,3,0,0,0-3-3H9A3,3,0,0,0,6,5V55a3,3,0,0,0,3,3h1v1a3,3,0,0,0,3,3H51a3,3,0,0,0,3-3V41h1a3,3,0,0,0,3-3V18A3,3,0,0,0,55,15ZM51,8a1,1,0,0,1,1,1v6H50V8ZM14,4h2V6.7l-.168-.252a1.039,1.039,0,0,0-1.664,0L14,6.7ZM8,55V5A1,1,0,0,1,9,4h3v6a1,1,0,0,0,1.832.555L15,8.8l1.168,1.752A1,1,0,0,0,18,10V4H47a1,1,0,0,1,1,1V15H17a3,3,0,0,0-3,3V38a3,3,0,0,0,3,3H48V55a1,1,0,0,1-1,1H9A1,1,0,0,1,8,55Zm44,4a1,1,0,0,1-1,1H13a1,1,0,0,1-1-1V58H47a3,3,0,0,0,3-3V41h2Zm4-21a1,1,0,0,1-1,1H17a1,1,0,0,1-1-1V18a1,1,0,0,1,1-1H55a1,1,0,0,1,1,1Z"/><path d="M25,22H23V33a1,1,0,0,0,1,1h5V32H25Z"/><path d="M36,22H34a3,3,0,0,0-3,3v6a3,3,0,0,0,3,3h2a3,3,0,0,0,3-3V25A3,3,0,0,0,36,22Zm1,9a1,1,0,0,1-1,1H34a1,1,0,0,1-1-1V25a1,1,0,0,1,1-1h2a1,1,0,0,1,1,1Z"/><path d="M44,24h2a1,1,0,0,1,1,1h2a3,3,0,0,0-3-3H44a3,3,0,0,0-3,3v6a3,3,0,0,0,3,3h2a3,3,0,0,0,3-3V28a1,1,0,0,0-1-1H45v2h2v2a1,1,0,0,1-1,1H44a1,1,0,0,1-1-1V25A1,1,0,0,1,44,24Z"/></symbol><symbol id="pdf" viewBox="0 0 64 64"><title>pdf</title><path d="M42,23V34h2V28h4V26H44V24h5V22H43A1,1,0,0,0,42,23Z"/><path d="M27,22H23a1,1,0,0,0-1,1V34h2V29h3a3,3,0,0,0,3-3V25A3,3,0,0,0,27,22Zm1,4a1,1,0,0,1-1,1H24V24h3a1,1,0,0,1,1,1Z"/><path d="M37,22H33a1,1,0,0,0-1,1V33a1,1,0,0,0,1,1h4a3,3,0,0,0,3-3V25A3,3,0,0,0,37,22Zm1,9a1,1,0,0,1-1,1H34V24h3a1,1,0,0,1,1,1Z"/><path d="M55,15H54V9a3,3,0,0,0-3-3H50V5a3,3,0,0,0-3-3H9A3,3,0,0,0,6,5V55a3,3,0,0,0,3,3h1v1a3,3,0,0,0,3,3H51a3,3,0,0,0,3-3V41h1a3,3,0,0,0,3-3V18A3,3,0,0,0,55,15ZM51,8a1,1,0,0,1,1,1v6H50V8ZM14,4h2V6.7l-.168-.252a1.039,1.039,0,0,0-1.664,0L14,6.7ZM8,55V5A1,1,0,0,1,9,4h3v6a1,1,0,0,0,1.832.555L15,8.8l1.168,1.752A1,1,0,0,0,18,10V4H47a1,1,0,0,1,1,1V15H17a3,3,0,0,0-3,3V38a3,3,0,0,0,3,3H48V55a1,1,0,0,1-1,1H9A1,1,0,0,1,8,55Zm44,4a1,1,0,0,1-1,1H13a1,1,0,0,1-1-1V58H47a3,3,0,0,0,3-3V41h2Zm4-21a1,1,0,0,1-1,1H17a1,1,0,0,1-1-1V18a1,1,0,0,1,1-1H55a1,1,0,0,1,1,1Z"/></symbol><symbol id="doc" viewBox="0 0 64 64"><title>doc</title><path d="M55,15H54V9a3,3,0,0,0-3-3H50V5a3,3,0,0,0-3-3H9A3,3,0,0,0,6,5V55a3,3,0,0,0,3,3h1v1a3,3,0,0,0,3,3H51a3,3,0,0,0,3-3V41h1a3,3,0,0,0,3-3V18A3,3,0,0,0,55,15ZM51,8a1,1,0,0,1,1,1v6H50V8ZM14,4h2V6.7l-.168-.252a1.039,1.039,0,0,0-1.664,0L14,6.7ZM8,55V5A1,1,0,0,1,9,4h3v6a1,1,0,0,0,1.832.555L15,8.8l1.168,1.752A1,1,0,0,0,18,10V4H47a1,1,0,0,1,1,1V15H17a3,3,0,0,0-3,3V38a3,3,0,0,0,3,3H48V55a1,1,0,0,1-1,1H9A1,1,0,0,1,8,55Zm44,4a1,1,0,0,1-1,1H13a1,1,0,0,1-1-1V58H47a3,3,0,0,0,3-3V41h2Zm4-21a1,1,0,0,1-1,1H17a1,1,0,0,1-1-1V18a1,1,0,0,1,1-1H55a1,1,0,0,1,1,1Z"/><path d="M27,22H23a1,1,0,0,0-1,1V33a1,1,0,0,0,1,1h4a3,3,0,0,0,3-3V25A3,3,0,0,0,27,22Zm1,9a1,1,0,0,1-1,1H24V24h3a1,1,0,0,1,1,1Z"/><path d="M37,22H35a3,3,0,0,0-3,3v6a3,3,0,0,0,3,3h2a3,3,0,0,0,3-3V25A3,3,0,0,0,37,22Zm1,9a1,1,0,0,1-1,1H35a1,1,0,0,1-1-1V25a1,1,0,0,1,1-1h2a1,1,0,0,1,1,1Z"/><path d="M45,24h2a1,1,0,0,1,1,1h2a3,3,0,0,0-3-3H45a3,3,0,0,0-3,3v6a3,3,0,0,0,3,3h2a3,3,0,0,0,3-3H48a1,1,0,0,1-1,1H45a1,1,0,0,1-1-1V25A1,1,0,0,1,45,24Z"/></symbol><symbol id="html" viewBox="0 0 64 64"><title>html</title><path d="m55 15h-1v-6a3 3 0 0 0 -3-3h-1v-1a3 3 0 0 0 -3-3h-38a3 3 0 0 0 -3 3v50a3 3 0 0 0 3 3h1v1a3 3 0 0 0 3 3h38a3 3 0 0 0 3-3v-18h1a3 3 0 0 0 3-3v-20a3 3 0 0 0 -3-3zm-4-7a1 1 0 0 1 1 1v6h-2v-7zm-37-4h2v2.7l-.168-.252a1.039 1.039 0 0 0 -1.664 0l-.168.252zm-6 51v-50a1 1 0 0 1 1-1h3v6a1 1 0 0 0 1.832.555l1.168-1.755 1.168 1.752a1 1 0 0 0 1.832-.552v-6h29a1 1 0 0 1 1 1v10h-31a3 3 0 0 0 -3 3v20a3 3 0 0 0 3 3h31v14a1 1 0 0 1 -1 1h-38a1 1 0 0 1 -1-1zm44 4a1 1 0 0 1 -1 1h-38a1 1 0 0 1 -1-1v-1h35a3 3 0 0 0 3-3v-14h2zm4-21a1 1 0 0 1 -1 1h-38a1 1 0 0 1 -1-1v-20a1 1 0 0 1 1-1h38a1 1 0 0 1 1 1z"/><path d="m24 27h-4v-5h-2v12h2v-5h4v5h2v-12h-2z"/><path d="m28 24h3v10h2v-10h3v-2h-8z"/><path d="m50 22h-2v11a1 1 0 0 0 1 1h5v-2h-4z"/><path d="m45.383 22.076a1 1 0 0 0 -1.09.217l-2.293 2.293-2.293-2.293a1 1 0 0 0 -1.707.707v11h2v-8.586l1.293 1.293a1 1 0 0 0 1.414 0l1.293-1.293v8.586h2v-11a1 1 0 0 0 -.617-.924z"/></symbol><symbol id="php" viewBox="0 0 64 64"><title>php</title><path d="m55 15h-1v-6a3 3 0 0 0 -3-3h-1v-1a3 3 0 0 0 -3-3h-38a3 3 0 0 0 -3 3v50a3 3 0 0 0 3 3h1v1a3 3 0 0 0 3 3h38a3 3 0 0 0 3-3v-18h1a3 3 0 0 0 3-3v-20a3 3 0 0 0 -3-3zm-4-7a1 1 0 0 1 1 1v6h-2v-7zm-37-4h2v2.7l-.168-.252a1.039 1.039 0 0 0 -1.664 0l-.168.252zm-6 51v-50a1 1 0 0 1 1-1h3v6a1 1 0 0 0 1.832.555l1.168-1.755 1.168 1.752a1 1 0 0 0 1.832-.552v-6h29a1 1 0 0 1 1 1v10h-31a3 3 0 0 0 -3 3v20a3 3 0 0 0 3 3h31v14a1 1 0 0 1 -1 1h-38a1 1 0 0 1 -1-1zm44 4a1 1 0 0 1 -1 1h-38a1 1 0 0 1 -1-1v-1h35a3 3 0 0 0 3-3v-14h2zm4-21a1 1 0 0 1 -1 1h-38a1 1 0 0 1 -1-1v-20a1 1 0 0 1 1-1h38a1 1 0 0 1 1 1z"/><path d="m27 22h-4a1 1 0 0 0 -1 1v11h2v-5h3a3 3 0 0 0 3-3v-1a3 3 0 0 0 -3-3zm1 4a1 1 0 0 1 -1 1h-3v-3h3a1 1 0 0 1 1 1z"/><path d="m47 22h-4a1 1 0 0 0 -1 1v11h2v-5h3a3 3 0 0 0 3-3v-1a3 3 0 0 0 -3-3zm1 4a1 1 0 0 1 -1 1h-3v-3h3a1 1 0 0 1 1 1z"/><path d="m38 27h-4v-5h-2v12h2v-5h4v5h2v-12h-2z"/></symbol><symbol id="zip" viewBox="0 0 64 64"><title>zip</title><path d="m55 15h-1v-6a3 3 0 0 0 -3-3h-1v-1a3 3 0 0 0 -3-3h-38a3 3 0 0 0 -3 3v50a3 3 0 0 0 3 3h1v1a3 3 0 0 0 3 3h38a3 3 0 0 0 3-3v-18h1a3 3 0 0 0 3-3v-20a3 3 0 0 0 -3-3zm-4-7a1 1 0 0 1 1 1v6h-2v-7zm-37-4h2v2.7l-.168-.252a1.039 1.039 0 0 0 -1.664 0l-.168.252zm-6 51v-50a1 1 0 0 1 1-1h3v6a1 1 0 0 0 1.832.555l1.168-1.755 1.168 1.752a1 1 0 0 0 1.832-.552v-6h29a1 1 0 0 1 1 1v10h-31a3 3 0 0 0 -3 3v20a3 3 0 0 0 3 3h31v14a1 1 0 0 1 -1 1h-38a1 1 0 0 1 -1-1zm44 4a1 1 0 0 1 -1 1h-38a1 1 0 0 1 -1-1v-1h35a3 3 0 0 0 3-3v-14h2zm4-21a1 1 0 0 1 -1 1h-38a1 1 0 0 1 -1-1v-20a1 1 0 0 1 1-1h38a1 1 0 0 1 1 1z"/><path d="m44 22h-4a1 1 0 0 0 -1 1v11h2v-5h3a3 3 0 0 0 3-3v-1a3 3 0 0 0 -3-3zm1 4a1 1 0 0 1 -1 1h-3v-3h3a1 1 0 0 1 1 1z"/><path d="m35 22h2v12h-2z"/><path d="m32.9 23.447a1 1 0 0 0 -.9-1.447h-6v2h4.382l-4.277 8.553a1 1 0 0 0 .895 1.447h6v-2h-4.382z"/></symbol><symbol id="css" viewBox="0 0 64 64"><title>css</title><path d="M55,15H54V9a3,3,0,0,0-3-3H50V5a3,3,0,0,0-3-3H9A3,3,0,0,0,6,5V55a3,3,0,0,0,3,3h1v1a3,3,0,0,0,3,3H51a3,3,0,0,0,3-3V41h1a3,3,0,0,0,3-3V18A3,3,0,0,0,55,15ZM51,8a1,1,0,0,1,1,1v6H50V8ZM14,4h2V6.7l-.168-.252a1.039,1.039,0,0,0-1.664,0L14,6.7ZM8,55V5A1,1,0,0,1,9,4h3v6a1,1,0,0,0,1.832.555L15,8.8l1.168,1.752A1,1,0,0,0,18,10V4H47a1,1,0,0,1,1,1V15H17a3,3,0,0,0-3,3V38a3,3,0,0,0,3,3H48V55a1,1,0,0,1-1,1H9A1,1,0,0,1,8,55Zm44,4a1,1,0,0,1-1,1H13a1,1,0,0,1-1-1V58H47a3,3,0,0,0,3-3V41h2Zm4-21a1,1,0,0,1-1,1H17a1,1,0,0,1-1-1V18a1,1,0,0,1,1-1H55a1,1,0,0,1,1,1Z"/><path d="M25,24h2a1,1,0,0,1,1,1h2a3,3,0,0,0-3-3H25a3,3,0,0,0-3,3v6a3,3,0,0,0,3,3h2a3,3,0,0,0,3-3H28a1,1,0,0,1-1,1H25a1,1,0,0,1-1-1V25A1,1,0,0,1,25,24Z"/><path d="M35,24h2a1,1,0,0,1,1,1h2a3,3,0,0,0-3-3H35a3,3,0,0,0-3,3v1a3,3,0,0,0,3,3h2a1,1,0,0,1,1,1v1a1,1,0,0,1-1,1H35a1,1,0,0,1-1-1H32a3,3,0,0,0,3,3h2a3,3,0,0,0,3-3V30a3,3,0,0,0-3-3H35a1,1,0,0,1-1-1V25A1,1,0,0,1,35,24Z"/><path d="M45,24h2a1,1,0,0,1,1,1h2a3,3,0,0,0-3-3H45a3,3,0,0,0-3,3v1a3,3,0,0,0,3,3h2a1,1,0,0,1,1,1v1a1,1,0,0,1-1,1H45a1,1,0,0,1-1-1H42a3,3,0,0,0,3,3h2a3,3,0,0,0,3-3V30a3,3,0,0,0-3-3H45a1,1,0,0,1-1-1V25A1,1,0,0,1,45,24Z"/></symbol><symbol id="ppt" viewBox="0 0 64 64"><title>ppt</title><path d="m55 15h-1v-6a3 3 0 0 0 -3-3h-1v-1a3 3 0 0 0 -3-3h-38a3 3 0 0 0 -3 3v50a3 3 0 0 0 3 3h1v1a3 3 0 0 0 3 3h38a3 3 0 0 0 3-3v-18h1a3 3 0 0 0 3-3v-20a3 3 0 0 0 -3-3zm-4-7a1 1 0 0 1 1 1v6h-2v-7zm-37-4h2v2.7l-.168-.252a1.039 1.039 0 0 0 -1.664 0l-.168.252zm-6 51v-50a1 1 0 0 1 1-1h3v6a1 1 0 0 0 1.832.555l1.168-1.755 1.168 1.752a1 1 0 0 0 1.832-.552v-6h29a1 1 0 0 1 1 1v10h-31a3 3 0 0 0 -3 3v20a3 3 0 0 0 3 3h31v14a1 1 0 0 1 -1 1h-38a1 1 0 0 1 -1-1zm44 4a1 1 0 0 1 -1 1h-38a1 1 0 0 1 -1-1v-1h35a3 3 0 0 0 3-3v-14h2zm4-21a1 1 0 0 1 -1 1h-38a1 1 0 0 1 -1-1v-20a1 1 0 0 1 1-1h38a1 1 0 0 1 1 1z"/><path d="m27 22h-4a1 1 0 0 0 -1 1v11h2v-5h3a3 3 0 0 0 3-3v-1a3 3 0 0 0 -3-3zm1 4a1 1 0 0 1 -1 1h-3v-3h3a1 1 0 0 1 1 1z"/><path d="m37 22h-4a1 1 0 0 0 -1 1v11h2v-5h3a3 3 0 0 0 3-3v-1a3 3 0 0 0 -3-3zm1 4a1 1 0 0 1 -1 1h-3v-3h3a1 1 0 0 1 1 1z"/><path d="m42 24h3v10h2v-10h3v-2h-8z"/></symbol><symbol id="jpg" viewBox="0 0 64 64"><title>jpg</title><path d="M55,15H54V9a3,3,0,0,0-3-3H50V5a3,3,0,0,0-3-3H9A3,3,0,0,0,6,5V55a3,3,0,0,0,3,3h1v1a3,3,0,0,0,3,3H51a3,3,0,0,0,3-3V41h1a3,3,0,0,0,3-3V18A3,3,0,0,0,55,15ZM51,8a1,1,0,0,1,1,1v6H50V8ZM14,4h2V6.7l-.168-.252a1.039,1.039,0,0,0-1.664,0L14,6.7ZM8,55V5A1,1,0,0,1,9,4h3v6a1,1,0,0,0,1.832.555L15,8.8l1.168,1.752A1,1,0,0,0,18,10V4H47a1,1,0,0,1,1,1V15H17a3,3,0,0,0-3,3V38a3,3,0,0,0,3,3H48V55a1,1,0,0,1-1,1H9A1,1,0,0,1,8,55Zm44,4a1,1,0,0,1-1,1H13a1,1,0,0,1-1-1V58H47a3,3,0,0,0,3-3V41h2Zm4-21a1,1,0,0,1-1,1H17a1,1,0,0,1-1-1V18a1,1,0,0,1,1-1H55a1,1,0,0,1,1,1Z"/><path d="M37,22H33a1,1,0,0,0-1,1V34h2V29h3a3,3,0,0,0,3-3V25A3,3,0,0,0,37,22Zm1,4a1,1,0,0,1-1,1H34V24h3a1,1,0,0,1,1,1Z"/><path d="M28,31a1,1,0,0,1-1,1H25a1,1,0,0,1-1-1V30H22v1a3,3,0,0,0,3,3h2a3,3,0,0,0,3-3V22H28Z"/><path d="M45,24h2a1,1,0,0,1,1,1h2a3,3,0,0,0-3-3H45a3,3,0,0,0-3,3v6a3,3,0,0,0,3,3h2a3,3,0,0,0,3-3V28a1,1,0,0,0-1-1H46v2h2v2a1,1,0,0,1-1,1H45a1,1,0,0,1-1-1V25A1,1,0,0,1,45,24Z"/></symbol><symbol id="gif" viewBox="0 0 64 64"><title>gif</title><path d="m55 15h-1v-6a3 3 0 0 0 -3-3h-1v-1a3 3 0 0 0 -3-3h-38a3 3 0 0 0 -3 3v50a3 3 0 0 0 3 3h1v1a3 3 0 0 0 3 3h38a3 3 0 0 0 3-3v-18h1a3 3 0 0 0 3-3v-20a3 3 0 0 0 -3-3zm-4-7a1 1 0 0 1 1 1v6h-2v-7zm-37-4h2v2.7l-.168-.252a1.039 1.039 0 0 0 -1.664 0l-.168.252zm-6 51v-50a1 1 0 0 1 1-1h3v6a1 1 0 0 0 1.832.555l1.168-1.755 1.168 1.752a1 1 0 0 0 1.832-.552v-6h29a1 1 0 0 1 1 1v10h-31a3 3 0 0 0 -3 3v20a3 3 0 0 0 3 3h31v14a1 1 0 0 1 -1 1h-38a1 1 0 0 1 -1-1zm44 4a1 1 0 0 1 -1 1h-38a1 1 0 0 1 -1-1v-1h35a3 3 0 0 0 3-3v-14h2zm4-21a1 1 0 0 1 -1 1h-38a1 1 0 0 1 -1-1v-20a1 1 0 0 1 1-1h38a1 1 0 0 1 1 1z"/><path d="m28 24h2a1 1 0 0 1 1 1h2a3 3 0 0 0 -3-3h-2a3 3 0 0 0 -3 3v6a3 3 0 0 0 3 3h2a3 3 0 0 0 3-3v-3a1 1 0 0 0 -1-1h-3v2h2v2a1 1 0 0 1 -1 1h-2a1 1 0 0 1 -1-1v-6a1 1 0 0 1 1-1z"/><path d="m35 22h2v12h-2z"/><path d="m39 23v11h2v-6h4v-2h-4v-2h5v-2h-6a1 1 0 0 0 -1 1z"/></symbol><symbol id="cad" viewBox="0 0 64 64"><title>cad</title><path d="M55,15H54V9a3,3,0,0,0-3-3H50V5a3,3,0,0,0-3-3H9A3,3,0,0,0,6,5V55a3,3,0,0,0,3,3h1v1a3,3,0,0,0,3,3H51a3,3,0,0,0,3-3V41h1a3,3,0,0,0,3-3V18A3,3,0,0,0,55,15ZM51,8a1,1,0,0,1,1,1v6H50V8ZM14,4h2V6.7l-.168-.252a1.039,1.039,0,0,0-1.664,0L14,6.7ZM8,55V5A1,1,0,0,1,9,4h3v6a1,1,0,0,0,1.832.555L15,8.8l1.168,1.752A1,1,0,0,0,18,10V4H47a1,1,0,0,1,1,1V15H17a3,3,0,0,0-3,3V38a3,3,0,0,0,3,3H48V55a1,1,0,0,1-1,1H9A1,1,0,0,1,8,55Zm44,4a1,1,0,0,1-1,1H13a1,1,0,0,1-1-1V58H47a3,3,0,0,0,3-3V41h2Zm4-21a1,1,0,0,1-1,1H17a1,1,0,0,1-1-1V18a1,1,0,0,1,1-1H55a1,1,0,0,1,1,1Z"/><path d="M25,24h2a1,1,0,0,1,1,1h2a3,3,0,0,0-3-3H25a3,3,0,0,0-3,3v6a3,3,0,0,0,3,3h2a3,3,0,0,0,3-3H28a1,1,0,0,1-1,1H25a1,1,0,0,1-1-1V25A1,1,0,0,1,25,24Z"/><path d="M47,22H43a1,1,0,0,0-1,1V33a1,1,0,0,0,1,1h4a3,3,0,0,0,3-3V25A3,3,0,0,0,47,22Zm1,9a1,1,0,0,1-1,1H44V24h3a1,1,0,0,1,1,1Z"/><path d="M37,22H35a3,3,0,0,0-3,3v9h2V29h4v5h2V25A3,3,0,0,0,37,22Zm-3,5V25a1,1,0,0,1,1-1h2a1,1,0,0,1,1,1v2Z"/></symbol><symbol id="ai" viewBox="0 0 64 64"><title>ai</title><path d="m55 15h-1v-6a3 3 0 0 0 -3-3h-1v-1a3 3 0 0 0 -3-3h-38a3 3 0 0 0 -3 3v50a3 3 0 0 0 3 3h1v1a3 3 0 0 0 3 3h38a3 3 0 0 0 3-3v-18h1a3 3 0 0 0 3-3v-20a3 3 0 0 0 -3-3zm-4-7a1 1 0 0 1 1 1v6h-2v-7zm-37-4h2v2.7l-.168-.252a1.039 1.039 0 0 0 -1.664 0l-.168.252zm-6 51v-50a1 1 0 0 1 1-1h3v6a1 1 0 0 0 1.832.555l1.168-1.755 1.168 1.752a1 1 0 0 0 1.832-.552v-6h29a1 1 0 0 1 1 1v10h-31a3 3 0 0 0 -3 3v20a3 3 0 0 0 3 3h31v14a1 1 0 0 1 -1 1h-38a1 1 0 0 1 -1-1zm44 4a1 1 0 0 1 -1 1h-38a1 1 0 0 1 -1-1v-1h35a3 3 0 0 0 3-3v-14h2zm4-21a1 1 0 0 1 -1 1h-38a1 1 0 0 1 -1-1v-20a1 1 0 0 1 1-1h38a1 1 0 0 1 1 1z"/><path d="m35 22h-2a3 3 0 0 0 -3 3v9h2v-5h4v5h2v-9a3 3 0 0 0 -3-3zm-3 5v-2a1 1 0 0 1 1-1h2a1 1 0 0 1 1 1v2z"/><path d="m40 22h2v12h-2z"/></symbol><symbol id="rtf" viewBox="0 0 64 64"><title>rtf</title><path d="m55 15h-1v-6a3 3 0 0 0 -3-3h-1v-1a3 3 0 0 0 -3-3h-38a3 3 0 0 0 -3 3v50a3 3 0 0 0 3 3h1v1a3 3 0 0 0 3 3h38a3 3 0 0 0 3-3v-18h1a3 3 0 0 0 3-3v-20a3 3 0 0 0 -3-3zm-4-7a1 1 0 0 1 1 1v6h-2v-7zm-37-4h2v2.7l-.168-.252a1.039 1.039 0 0 0 -1.664 0l-.168.252zm-6 51v-50a1 1 0 0 1 1-1h3v6a1 1 0 0 0 1.832.555l1.168-1.755 1.168 1.752a1 1 0 0 0 1.832-.552v-6h29a1 1 0 0 1 1 1v10h-31a3 3 0 0 0 -3 3v20a3 3 0 0 0 3 3h31v14a1 1 0 0 1 -1 1h-38a1 1 0 0 1 -1-1zm44 4a1 1 0 0 1 -1 1h-38a1 1 0 0 1 -1-1v-1h35a3 3 0 0 0 3-3v-14h2zm4-21a1 1 0 0 1 -1 1h-38a1 1 0 0 1 -1-1v-20a1 1 0 0 1 1-1h38a1 1 0 0 1 1 1z"/><path d="m27 22h-4a1 1 0 0 0 -1 1v11h2v-5h3a1 1 0 0 1 1 1v4h2v-4a2.981 2.981 0 0 0 -.78-2 2.981 2.981 0 0 0 .78-2v-1a3 3 0 0 0 -3-3zm-3 5v-3h3a1 1 0 0 1 1 1v1a1 1 0 0 1 -1 1z"/><path d="m32 24h3v10h2v-10h3v-2h-8z"/><path d="m42 23v11h2v-6h4v-2h-4v-2h5v-2h-6a1 1 0 0 0 -1 1z"/></symbol><symbol id="bat" viewBox="0 0 64 64"><title>bat</title><path d="m55 15h-1v-6a3 3 0 0 0 -3-3h-1v-1a3 3 0 0 0 -3-3h-38a3 3 0 0 0 -3 3v50a3 3 0 0 0 3 3h1v1a3 3 0 0 0 3 3h38a3 3 0 0 0 3-3v-18h1a3 3 0 0 0 3-3v-20a3 3 0 0 0 -3-3zm-4-7a1 1 0 0 1 1 1v6h-2v-7zm-37-4h2v2.7l-.168-.252a1.039 1.039 0 0 0 -1.664 0l-.168.252zm-6 51v-50a1 1 0 0 1 1-1h3v6a1 1 0 0 0 1.832.555l1.168-1.755 1.168 1.752a1 1 0 0 0 1.832-.552v-6h29a1 1 0 0 1 1 1v10h-31a3 3 0 0 0 -3 3v20a3 3 0 0 0 3 3h31v14a1 1 0 0 1 -1 1h-38a1 1 0 0 1 -1-1zm44 4a1 1 0 0 1 -1 1h-38a1 1 0 0 1 -1-1v-1h35a3 3 0 0 0 3-3v-14h2zm4-21a1 1 0 0 1 -1 1h-38a1 1 0 0 1 -1-1v-20a1 1 0 0 1 1-1h38a1 1 0 0 1 1 1z"/><path d="m27 22h-4a1 1 0 0 0 -1 1v10a1 1 0 0 0 1 1h4a3 3 0 0 0 3-3v-1a2.981 2.981 0 0 0 -.78-2 2.981 2.981 0 0 0 .78-2v-1a3 3 0 0 0 -3-3zm-3 2h3a1 1 0 0 1 1 1v1a1 1 0 0 1 -1 1h-3zm4 7a1 1 0 0 1 -1 1h-3v-3h3a1 1 0 0 1 1 1z"/><path d="m37 22h-2a3 3 0 0 0 -3 3v9h2v-5h4v5h2v-9a3 3 0 0 0 -3-3zm-3 5v-2a1 1 0 0 1 1-1h2a1 1 0 0 1 1 1v2z"/><path d="m42 24h3v10h2v-10h3v-2h-8z"/></symbol><symbol id="tif" viewBox="0 0 64 64"><title>tif</title><path d="m55 15h-1v-6a3 3 0 0 0 -3-3h-1v-1a3 3 0 0 0 -3-3h-38a3 3 0 0 0 -3 3v50a3 3 0 0 0 3 3h1v1a3 3 0 0 0 3 3h38a3 3 0 0 0 3-3v-18h1a3 3 0 0 0 3-3v-20a3 3 0 0 0 -3-3zm-4-7a1 1 0 0 1 1 1v6h-2v-7zm-37-4h2v2.7l-.168-.252a1.039 1.039 0 0 0 -1.664 0l-.168.252zm-6 51v-50a1 1 0 0 1 1-1h3v6a1 1 0 0 0 1.832.555l1.168-1.755 1.168 1.752a1 1 0 0 0 1.832-.552v-6h29a1 1 0 0 1 1 1v10h-31a3 3 0 0 0 -3 3v20a3 3 0 0 0 3 3h31v14a1 1 0 0 1 -1 1h-38a1 1 0 0 1 -1-1zm44 4a1 1 0 0 1 -1 1h-38a1 1 0 0 1 -1-1v-1h35a3 3 0 0 0 3-3v-14h2zm4-21a1 1 0 0 1 -1 1h-38a1 1 0 0 1 -1-1v-20a1 1 0 0 1 1-1h38a1 1 0 0 1 1 1z"/><path d="m35 22h2v12h-2z"/><path d="m39 23v11h2v-6h5v-2h-5v-2h6v-2h-7a1 1 0 0 0 -1 1z"/><path d="m25 24h3v10h2v-10h3v-2h-8z"/></symbol><symbol id="avi" viewBox="0 0 64 64"><title>avi</title><path d="m55 15h-1v-6a3 3 0 0 0 -3-3h-1v-1a3 3 0 0 0 -3-3h-38a3 3 0 0 0 -3 3v50a3 3 0 0 0 3 3h1v1a3 3 0 0 0 3 3h38a3 3 0 0 0 3-3v-18h1a3 3 0 0 0 3-3v-20a3 3 0 0 0 -3-3zm-4-7a1 1 0 0 1 1 1v6h-2v-7zm-37-4h2v2.7l-.168-.252a1.039 1.039 0 0 0 -1.664 0l-.168.252zm-6 51v-50a1 1 0 0 1 1-1h3v6a1 1 0 0 0 1.832.555l1.168-1.755 1.168 1.752a1 1 0 0 0 1.832-.552v-6h29a1 1 0 0 1 1 1v10h-31a3 3 0 0 0 -3 3v20a3 3 0 0 0 3 3h31v14a1 1 0 0 1 -1 1h-38a1 1 0 0 1 -1-1zm44 4a1 1 0 0 1 -1 1h-38a1 1 0 0 1 -1-1v-1h35a3 3 0 0 0 3-3v-14h2zm4-21a1 1 0 0 1 -1 1h-38a1 1 0 0 1 -1-1v-20a1 1 0 0 1 1-1h38a1 1 0 0 1 1 1z"/><path d="m30 22h-2a3 3 0 0 0 -3 3v9h2v-5h4v5h2v-9a3 3 0 0 0 -3-3zm-3 5v-2a1 1 0 0 1 1-1h2a1 1 0 0 1 1 1v2z"/><path d="m41 28.7-2 2.649-2-2.614v-6.735h-2v7.071a1 1 0 0 0 .2.607l3 3.929a1 1 0 0 0 .8.393.994.994 0 0 0 .795-.4l3-3.967a.994.994 0 0 0 .2-.6v-7.033h-1.995z"/><path d="m45 22h2v12h-2z"/></symbol><symbol id="eps" viewBox="0 0 64 64"><title>eps</title><path d="M55,15H54V9a3,3,0,0,0-3-3H50V5a3,3,0,0,0-3-3H9A3,3,0,0,0,6,5V55a3,3,0,0,0,3,3h1v1a3,3,0,0,0,3,3H51a3,3,0,0,0,3-3V41h1a3,3,0,0,0,3-3V18A3,3,0,0,0,55,15ZM51,8a1,1,0,0,1,1,1v6H50V8ZM14,4h2V6.7l-.168-.252a1.039,1.039,0,0,0-1.664,0L14,6.7ZM8,55V5A1,1,0,0,1,9,4h3v6a1,1,0,0,0,1.832.555L15,8.8l1.168,1.752A1,1,0,0,0,18,10V4H47a1,1,0,0,1,1,1V15H17a3,3,0,0,0-3,3V38a3,3,0,0,0,3,3H48V55a1,1,0,0,1-1,1H9A1,1,0,0,1,8,55Zm44,4a1,1,0,0,1-1,1H13a1,1,0,0,1-1-1V58H47a3,3,0,0,0,3-3V41h2Zm4-21a1,1,0,0,1-1,1H17a1,1,0,0,1-1-1V18a1,1,0,0,1,1-1H55a1,1,0,0,1,1,1Z"/><path d="M37,22H33a1,1,0,0,0-1,1V34h2V29h3a3,3,0,0,0,3-3V25A3,3,0,0,0,37,22Zm1,4a1,1,0,0,1-1,1H34V24h3a1,1,0,0,1,1,1Z"/><path d="M45,24h2a1,1,0,0,1,1,1h2a3,3,0,0,0-3-3H45a3,3,0,0,0-3,3v1a3,3,0,0,0,3,3h2a1,1,0,0,1,1,1v1a1,1,0,0,1-1,1H45a1,1,0,0,1-1-1H42a3,3,0,0,0,3,3h2a3,3,0,0,0,3-3V30a3,3,0,0,0-3-3H45a1,1,0,0,1-1-1V25A1,1,0,0,1,45,24Z"/><path d="M22,23V33a1,1,0,0,0,1,1h7V32H24V29h6V27H24V24h6V22H23A1,1,0,0,0,22,23Z"/></symbol><symbol id="bmp" viewBox="0 0 64 64"><title>bmp</title><path d="M55,15H54V9a3,3,0,0,0-3-3H50V5a3,3,0,0,0-3-3H9A3,3,0,0,0,6,5V55a3,3,0,0,0,3,3h1v1a3,3,0,0,0,3,3H51a3,3,0,0,0,3-3V41h1a3,3,0,0,0,3-3V18A3,3,0,0,0,55,15ZM51,8a1,1,0,0,1,1,1v6H50V8ZM14,4h2V6.7l-.168-.252a1.039,1.039,0,0,0-1.664,0L14,6.7ZM8,55V5A1,1,0,0,1,9,4h3v6a1,1,0,0,0,1.832.555L15,8.8l1.168,1.752A1,1,0,0,0,18,10V4H47a1,1,0,0,1,1,1V15H17a3,3,0,0,0-3,3V38a3,3,0,0,0,3,3H48V55a1,1,0,0,1-1,1H9A1,1,0,0,1,8,55Zm44,4a1,1,0,0,1-1,1H13a1,1,0,0,1-1-1V58H47a3,3,0,0,0,3-3V41h2Zm4-21a1,1,0,0,1-1,1H17a1,1,0,0,1-1-1V18a1,1,0,0,1,1-1H55a1,1,0,0,1,1,1Z"/><path d="M47,22H43a1,1,0,0,0-1,1V34h2V29h3a3,3,0,0,0,3-3V25A3,3,0,0,0,47,22Zm1,4a1,1,0,0,1-1,1H44V24h3a1,1,0,0,1,1,1Z"/><path d="M39.383,22.076a1,1,0,0,0-1.09.217L36,24.586l-2.293-2.293A1,1,0,0,0,32,23V34h2V25.414l1.293,1.293a1,1,0,0,0,1.414,0L38,25.414V34h2V23A1,1,0,0,0,39.383,22.076Z"/><path d="M27,22H23a1,1,0,0,0-1,1V33a1,1,0,0,0,1,1h4a3,3,0,0,0,3-3V30a2.981,2.981,0,0,0-.78-2A2.981,2.981,0,0,0,30,26V25A3,3,0,0,0,27,22Zm-3,2h3a1,1,0,0,1,1,1v1a1,1,0,0,1-1,1H24Zm4,7a1,1,0,0,1-1,1H24V29h3a1,1,0,0,1,1,1Z"/></symbol><symbol id="raw" viewBox="0 0 64 64"><title>raw</title><path d="M55,15H54V9a3,3,0,0,0-3-3H50V5a3,3,0,0,0-3-3H9A3,3,0,0,0,6,5V55a3,3,0,0,0,3,3h1v1a3,3,0,0,0,3,3H51a3,3,0,0,0,3-3V41h1a3,3,0,0,0,3-3V18A3,3,0,0,0,55,15ZM51,8a1,1,0,0,1,1,1v6H50V8ZM14,4h2V6.7l-.168-.252a1.039,1.039,0,0,0-1.664,0L14,6.7ZM8,55V5A1,1,0,0,1,9,4h3v6a1,1,0,0,0,1.832.555L15,8.8l1.168,1.752A1,1,0,0,0,18,10V4H47a1,1,0,0,1,1,1V15H17a3,3,0,0,0-3,3V38a3,3,0,0,0,3,3H48V55a1,1,0,0,1-1,1H9A1,1,0,0,1,8,55Zm44,4a1,1,0,0,1-1,1H13a1,1,0,0,1-1-1V58H47a3,3,0,0,0,3-3V41h2Zm4-21a1,1,0,0,1-1,1H17a1,1,0,0,1-1-1V18a1,1,0,0,1,1-1H55a1,1,0,0,1,1,1Z"/><path d="M37,22H35a3,3,0,0,0-3,3v9h2V29h4v5h2V25A3,3,0,0,0,37,22Zm-3,5V25a1,1,0,0,1,1-1h2a1,1,0,0,1,1,1v2Z"/><path d="M48,30.586l-1.293-1.293a1,1,0,0,0-1.414,0L44,30.586V22H42V33a1,1,0,0,0,1.707.707L46,31.414l2.293,2.293A1,1,0,0,0,50,33V22H48Z"/><path d="M27,22H23a1,1,0,0,0-1,1V34h2V29h3a1,1,0,0,1,1,1v4h2V30a2.981,2.981,0,0,0-.78-2A2.981,2.981,0,0,0,30,26V25A3,3,0,0,0,27,22Zm-3,5V24h3a1,1,0,0,1,1,1v1a1,1,0,0,1-1,1Z"/></symbol><symbol id="psd" viewBox="0 0 64 64"><title>psd</title><path d="M55,15H54V9a3,3,0,0,0-3-3H50V5a3,3,0,0,0-3-3H9A3,3,0,0,0,6,5V55a3,3,0,0,0,3,3h1v1a3,3,0,0,0,3,3H51a3,3,0,0,0,3-3V41h1a3,3,0,0,0,3-3V18A3,3,0,0,0,55,15ZM51,8a1,1,0,0,1,1,1v6H50V8ZM14,4h2V6.7l-.168-.252a1.039,1.039,0,0,0-1.664,0L14,6.7ZM8,55V5A1,1,0,0,1,9,4h3v6a1,1,0,0,0,1.832.555L15,8.8l1.168,1.752A1,1,0,0,0,18,10V4H47a1,1,0,0,1,1,1V15H17a3,3,0,0,0-3,3V38a3,3,0,0,0,3,3H48V55a1,1,0,0,1-1,1H9A1,1,0,0,1,8,55Zm44,4a1,1,0,0,1-1,1H13a1,1,0,0,1-1-1V58H47a3,3,0,0,0,3-3V41h2Zm4-21a1,1,0,0,1-1,1H17a1,1,0,0,1-1-1V18a1,1,0,0,1,1-1H55a1,1,0,0,1,1,1Z"/><path d="M27,22H23a1,1,0,0,0-1,1V34h2V29h3a3,3,0,0,0,3-3V25A3,3,0,0,0,27,22Zm1,4a1,1,0,0,1-1,1H24V24h3a1,1,0,0,1,1,1Z"/><path d="M35,24h2a1,1,0,0,1,1,1h2a3,3,0,0,0-3-3H35a3,3,0,0,0-3,3v1a3,3,0,0,0,3,3h2a1,1,0,0,1,1,1v1a1,1,0,0,1-1,1H35a1,1,0,0,1-1-1H32a3,3,0,0,0,3,3h2a3,3,0,0,0,3-3V30a3,3,0,0,0-3-3H35a1,1,0,0,1-1-1V25A1,1,0,0,1,35,24Z"/><path d="M47,22H43a1,1,0,0,0-1,1V33a1,1,0,0,0,1,1h4a3,3,0,0,0,3-3V25A3,3,0,0,0,47,22Zm1,9a1,1,0,0,1-1,1H44V24h3a1,1,0,0,1,1,1Z"/></symbol><symbol id="exe" viewBox="0 0 64 64"><title>exe</title><path d="M55,15H54V9a3,3,0,0,0-3-3H50V5a3,3,0,0,0-3-3H9A3,3,0,0,0,6,5V55a3,3,0,0,0,3,3h1v1a3,3,0,0,0,3,3H51a3,3,0,0,0,3-3V41h1a3,3,0,0,0,3-3V18A3,3,0,0,0,55,15ZM51,8a1,1,0,0,1,1,1v6H50V8ZM14,4h2V6.7l-.168-.252a1.039,1.039,0,0,0-1.664,0L14,6.7ZM8,55V5A1,1,0,0,1,9,4h3v6a1,1,0,0,0,1.832.555L15,8.8l1.168,1.752A1,1,0,0,0,18,10V4H47a1,1,0,0,1,1,1V15H17a3,3,0,0,0-3,3V38a3,3,0,0,0,3,3H48V55a1,1,0,0,1-1,1H9A1,1,0,0,1,8,55Zm44,4a1,1,0,0,1-1,1H13a1,1,0,0,1-1-1V58H47a3,3,0,0,0,3-3V41h2Zm4-21a1,1,0,0,1-1,1H17a1,1,0,0,1-1-1V18a1,1,0,0,1,1-1H55a1,1,0,0,1,1,1Z"/><path d="M23,23V33a1,1,0,0,0,1,1h6V32H25V29h5V27H25V24h5V22H24A1,1,0,0,0,23,23Z"/><path d="M42,23V33a1,1,0,0,0,1,1h6V32H44V29h5V27H44V24h5V22H43A1,1,0,0,0,42,23Z"/><path d="M37.071,22.628,36,25.307l-1.071-2.679A1,1,0,0,0,34,22H32v2h1.323l1.6,4-1.6,4H32v2h2a1,1,0,0,0,.929-.628L36,30.693l1.071,2.679A1,1,0,0,0,38,34h2V32H38.677l-1.6-4,1.6-4H40V22H38A1,1,0,0,0,37.071,22.628Z"/></symbol><symbol id="svg" viewBox="0 0 64 64"><title>svg</title><path d="M55,15H54V9a3,3,0,0,0-3-3H50V5a3,3,0,0,0-3-3H9A3,3,0,0,0,6,5V55a3,3,0,0,0,3,3h1v1a3,3,0,0,0,3,3H51a3,3,0,0,0,3-3V41h1a3,3,0,0,0,3-3V18A3,3,0,0,0,55,15ZM51,8a1,1,0,0,1,1,1v6H50V8ZM14,4h2V6.7l-.168-.252a1.039,1.039,0,0,0-1.664,0L14,6.7ZM8,55V5A1,1,0,0,1,9,4h3v6a1,1,0,0,0,1.832.555L15,8.8l1.168,1.752A1,1,0,0,0,18,10V4H47a1,1,0,0,1,1,1V15H17a3,3,0,0,0-3,3V38a3,3,0,0,0,3,3H48V55a1,1,0,0,1-1,1H9A1,1,0,0,1,8,55Zm44,4a1,1,0,0,1-1,1H13a1,1,0,0,1-1-1V58H47a3,3,0,0,0,3-3V41h2Zm4-21a1,1,0,0,1-1,1H17a1,1,0,0,1-1-1V18a1,1,0,0,1,1-1H55a1,1,0,0,1,1,1Z"/><path d="M25,24h2a1,1,0,0,1,1,1h2a3,3,0,0,0-3-3H25a3,3,0,0,0-3,3v1a3,3,0,0,0,3,3h3v2a1,1,0,0,1-1,1H25a1,1,0,0,1-1-1H22a3,3,0,0,0,3,3h2a3,3,0,0,0,3-3V29a2,2,0,0,0-2-2H25a1,1,0,0,1-1-1V25A1,1,0,0,1,25,24Z"/><path d="M38,28.7l-2,2.649-2-2.614V22H32v7.071a1,1,0,0,0,.2.607l3,3.929A1,1,0,0,0,36,34h0a1,1,0,0,0,.8-.4l3-3.967a1,1,0,0,0,.2-.6V22H38Z"/><path d="M45,24h2a1,1,0,0,1,1,1h2a3,3,0,0,0-3-3H45a3,3,0,0,0-3,3v6a3,3,0,0,0,3,3h2a3,3,0,0,0,3-3V28a1,1,0,0,0-1-1H46v2h2v2a1,1,0,0,1-1,1H45a1,1,0,0,1-1-1V25A1,1,0,0,1,45,24Z"/></symbol><symbol id="xls" viewBox="0 0 64 64"><title>xls</title><path d="M55,15H54V9a3,3,0,0,0-3-3H50V5a3,3,0,0,0-3-3H9A3,3,0,0,0,6,5V55a3,3,0,0,0,3,3h1v1a3,3,0,0,0,3,3H51a3,3,0,0,0,3-3V41h1a3,3,0,0,0,3-3V18A3,3,0,0,0,55,15ZM51,8a1,1,0,0,1,1,1v6H50V8ZM14,4h2V6.7l-.168-.252a1.039,1.039,0,0,0-1.664,0L14,6.7ZM8,55V5A1,1,0,0,1,9,4h3v6a1,1,0,0,0,1.832.555L15,8.8l1.168,1.752A1,1,0,0,0,18,10V4H47a1,1,0,0,1,1,1V15H17a3,3,0,0,0-3,3V38a3,3,0,0,0,3,3H48V55a1,1,0,0,1-1,1H9A1,1,0,0,1,8,55Zm44,4a1,1,0,0,1-1,1H13a1,1,0,0,1-1-1V58H47a3,3,0,0,0,3-3V41h2Zm4-21a1,1,0,0,1-1,1H17a1,1,0,0,1-1-1V18a1,1,0,0,1,1-1H55a1,1,0,0,1,1,1Z"/><path d="M28.071,22.628,27,25.307l-1.071-2.679A1,1,0,0,0,25,22H23v2h1.323l1.6,4-1.6,4H23v2h2a1,1,0,0,0,.929-.628L27,30.693l1.071,2.679A1,1,0,0,0,29,34h2V32H29.677l-1.6-4,1.6-4H31V22H29A1,1,0,0,0,28.071,22.628Z"/><path d="M35,22H33V33a1,1,0,0,0,1,1h6V32H35Z"/><path d="M44,24h2a1,1,0,0,1,1,1h2a3,3,0,0,0-3-3H44a3,3,0,0,0-3,3v1a3,3,0,0,0,3,3h2a1,1,0,0,1,1,1v1a1,1,0,0,1-1,1H44a1,1,0,0,1-1-1H41a3,3,0,0,0,3,3h2a3,3,0,0,0,3-3V30a3,3,0,0,0-3-3H44a1,1,0,0,1-1-1V25A1,1,0,0,1,44,24Z"/></symbol><symbol id="png" viewBox="0 0 64 64"><title>png</title><path d="M55,15H54V9a3,3,0,0,0-3-3H50V5a3,3,0,0,0-3-3H9A3,3,0,0,0,6,5V55a3,3,0,0,0,3,3h1v1a3,3,0,0,0,3,3H51a3,3,0,0,0,3-3V41h1a3,3,0,0,0,3-3V18A3,3,0,0,0,55,15ZM51,8a1,1,0,0,1,1,1v6H50V8ZM14,4h2V6.7l-.168-.252a1.039,1.039,0,0,0-1.664,0L14,6.7ZM8,55V5A1,1,0,0,1,9,4h3v6a1,1,0,0,0,1.832.555L15,8.8l1.168,1.752A1,1,0,0,0,18,10V4H47a1,1,0,0,1,1,1V15H17a3,3,0,0,0-3,3V38a3,3,0,0,0,3,3H48V55a1,1,0,0,1-1,1H9A1,1,0,0,1,8,55Zm44,4a1,1,0,0,1-1,1H13a1,1,0,0,1-1-1V58H47a3,3,0,0,0,3-3V41h2Zm4-21a1,1,0,0,1-1,1H17a1,1,0,0,1-1-1V18a1,1,0,0,1,1-1H55a1,1,0,0,1,1,1Z"/><path d="M27,22H23a1,1,0,0,0-1,1V34h2V29h3a3,3,0,0,0,3-3V25A3,3,0,0,0,27,22Zm1,4a1,1,0,0,1-1,1H24V24h3a1,1,0,0,1,1,1Z"/><path d="M45,24h2a1,1,0,0,1,1,1h2a3,3,0,0,0-3-3H45a3,3,0,0,0-3,3v6a3,3,0,0,0,3,3h2a3,3,0,0,0,3-3V28a1,1,0,0,0-1-1H46v2h2v2a1,1,0,0,1-1,1H45a1,1,0,0,1-1-1V25A1,1,0,0,1,45,24Z"/><path d="M38,29.39l-4.143-6.905A1,1,0,0,0,32,23V34h2V26.61l4.143,6.905A1,1,0,0,0,39,34a1.027,1.027,0,0,0,.267-.036A1,1,0,0,0,40,33V22H38Z"/></symbol><symbol id="mov" viewBox="0 0 64 64"><title>mov</title><path d="M55,15H54V9a3,3,0,0,0-3-3H50V5a3,3,0,0,0-3-3H9A3,3,0,0,0,6,5V55a3,3,0,0,0,3,3h1v1a3,3,0,0,0,3,3H51a3,3,0,0,0,3-3V41h1a3,3,0,0,0,3-3V18A3,3,0,0,0,55,15ZM51,8a1,1,0,0,1,1,1v6H50V8ZM14,4h2V6.7l-.168-.252a1.039,1.039,0,0,0-1.664,0L14,6.7ZM8,55V5A1,1,0,0,1,9,4h3v6a1,1,0,0,0,1.832.555L15,8.8l1.168,1.752A1,1,0,0,0,18,10V4H47a1,1,0,0,1,1,1V15H17a3,3,0,0,0-3,3V38a3,3,0,0,0,3,3H48V55a1,1,0,0,1-1,1H9A1,1,0,0,1,8,55Zm44,4a1,1,0,0,1-1,1H13a1,1,0,0,1-1-1V58H47a3,3,0,0,0,3-3V41h2Zm4-21a1,1,0,0,1-1,1H17a1,1,0,0,1-1-1V18a1,1,0,0,1,1-1H55a1,1,0,0,1,1,1Z"/><path d="M29.383,22.076a1,1,0,0,0-1.09.217L26,24.586l-2.293-2.293A1,1,0,0,0,22,23V34h2V25.414l1.293,1.293a1,1,0,0,0,1.414,0L28,25.414V34h2V23A1,1,0,0,0,29.383,22.076Z"/><path d="M37,22H35a3,3,0,0,0-3,3v6a3,3,0,0,0,3,3h2a3,3,0,0,0,3-3V25A3,3,0,0,0,37,22Zm1,9a1,1,0,0,1-1,1H35a1,1,0,0,1-1-1V25a1,1,0,0,1,1-1h2a1,1,0,0,1,1,1Z"/><path d="M48,28.7l-2,2.649-2-2.614V22H42v7.071a1,1,0,0,0,.2.607l3,3.929A1,1,0,0,0,46,34h0a1,1,0,0,0,.8-.4l3-3.967a1,1,0,0,0,.2-.6V22H48Z"/></symbol><symbol id="bak" viewBox="0 0 64 64"><title>bak</title><path d="M55,15H54V9a3,3,0,0,0-3-3H50V5a3,3,0,0,0-3-3H9A3,3,0,0,0,6,5V55a3,3,0,0,0,3,3h1v1a3,3,0,0,0,3,3H51a3,3,0,0,0,3-3V41h1a3,3,0,0,0,3-3V18A3,3,0,0,0,55,15ZM51,8a1,1,0,0,1,1,1v6H50V8ZM14,4h2V6.7l-.168-.252a1.039,1.039,0,0,0-1.664,0L14,6.7ZM8,55V5A1,1,0,0,1,9,4h3v6a1,1,0,0,0,1.832.555L15,8.8l1.168,1.752A1,1,0,0,0,18,10V4H47a1,1,0,0,1,1,1V15H17a3,3,0,0,0-3,3V38a3,3,0,0,0,3,3H48V55a1,1,0,0,1-1,1H9A1,1,0,0,1,8,55Zm44,4a1,1,0,0,1-1,1H13a1,1,0,0,1-1-1V58H47a3,3,0,0,0,3-3V41h2Zm4-21a1,1,0,0,1-1,1H17a1,1,0,0,1-1-1V18a1,1,0,0,1,1-1H55a1,1,0,0,1,1,1Z"/><path d="M27,22H23a1,1,0,0,0-1,1V33a1,1,0,0,0,1,1h4a3,3,0,0,0,3-3V30a2.981,2.981,0,0,0-.78-2A2.981,2.981,0,0,0,30,26V25A3,3,0,0,0,27,22Zm-3,2h3a1,1,0,0,1,1,1v1a1,1,0,0,1-1,1H24Zm4,7a1,1,0,0,1-1,1H24V29h3a1,1,0,0,1,1,1Z"/><path d="M37,22H35a3,3,0,0,0-3,3v9h2V29h4v5h2V25A3,3,0,0,0,37,22Zm-3,5V25a1,1,0,0,1,1-1h2a1,1,0,0,1,1,1v2Z"/><path d="M50,22H48a5.009,5.009,0,0,1-4,4.9V22H42V34h2V29.1A5.009,5.009,0,0,1,48,34h2a7,7,0,0,0-3.413-6A7,7,0,0,0,50,22Z"/></symbol><symbol id="midi" viewBox="0 0 64 64"><title>midi</title><path d="m55 15h-1v-6a3 3 0 0 0 -3-3h-1v-1a3 3 0 0 0 -3-3h-38a3 3 0 0 0 -3 3v50a3 3 0 0 0 3 3h1v1a3 3 0 0 0 3 3h38a3 3 0 0 0 3-3v-18h1a3 3 0 0 0 3-3v-20a3 3 0 0 0 -3-3zm-4-7a1 1 0 0 1 1 1v6h-2v-7zm-37-4h2v2.7l-.168-.252a1.039 1.039 0 0 0 -1.664 0l-.168.252zm-6 51v-50a1 1 0 0 1 1-1h3v6a1 1 0 0 0 1.832.555l1.168-1.755 1.168 1.752a1 1 0 0 0 1.832-.552v-6h29a1 1 0 0 1 1 1v10h-31a3 3 0 0 0 -3 3v20a3 3 0 0 0 3 3h31v14a1 1 0 0 1 -1 1h-38a1 1 0 0 1 -1-1zm44 4a1 1 0 0 1 -1 1h-38a1 1 0 0 1 -1-1v-1h35a3 3 0 0 0 3-3v-14h2zm4-21a1 1 0 0 1 -1 1h-38a1 1 0 0 1 -1-1v-20a1 1 0 0 1 1-1h38a1 1 0 0 1 1 1z"/><path d="m30.383 22.076a1 1 0 0 0 -1.09.217l-2.293 2.293-2.293-2.293a1 1 0 0 0 -1.707.707v11h2v-8.586l1.293 1.293a1 1 0 0 0 1.414 0l1.293-1.293v8.586h2v-11a1 1 0 0 0 -.617-.924z"/><path d="m33 22h2v12h-2z"/><path d="m47 22h2v12h-2z"/><path d="m42 22h-4a1 1 0 0 0 -1 1v10a1 1 0 0 0 1 1h4a3 3 0 0 0 3-3v-6a3 3 0 0 0 -3-3zm1 9a1 1 0 0 1 -1 1h-3v-8h3a1 1 0 0 1 1 1z"/></symbol><symbol id="wmv" viewBox="0 0 64 64"><title>wmv</title><path d="M55,15H54V9a3,3,0,0,0-3-3H50V5a3,3,0,0,0-3-3H9A3,3,0,0,0,6,5V55a3,3,0,0,0,3,3h1v1a3,3,0,0,0,3,3H51a3,3,0,0,0,3-3V41h1a3,3,0,0,0,3-3V18A3,3,0,0,0,55,15ZM51,8a1,1,0,0,1,1,1v6H50V8ZM14,4h2V6.7l-.168-.252a1.039,1.039,0,0,0-1.664,0L14,6.7ZM8,55V5A1,1,0,0,1,9,4h3v6a1,1,0,0,0,1.832.555L15,8.8l1.168,1.752A1,1,0,0,0,18,10V4H47a1,1,0,0,1,1,1V15H17a3,3,0,0,0-3,3V38a3,3,0,0,0,3,3H48V55a1,1,0,0,1-1,1H9A1,1,0,0,1,8,55Zm44,4a1,1,0,0,1-1,1H13a1,1,0,0,1-1-1V58H47a3,3,0,0,0,3-3V41h2Zm4-21a1,1,0,0,1-1,1H17a1,1,0,0,1-1-1V18a1,1,0,0,1,1-1H55a1,1,0,0,1,1,1Z"/><path d="M28,30.586l-1.293-1.293a1,1,0,0,0-1.414,0L24,30.586V22H22V33a1,1,0,0,0,1.707.707L26,31.414l2.293,2.293A1,1,0,0,0,30,33V22H28Z"/><path d="M39.383,22.076a1,1,0,0,0-1.09.217L36,24.586l-2.293-2.293A1,1,0,0,0,32,23V34h2V25.414l1.293,1.293a1,1,0,0,0,1.414,0L38,25.414V34h2V23A1,1,0,0,0,39.383,22.076Z"/><path d="M48,28.7l-2,2.649-2-2.614V22H42v7.071a1,1,0,0,0,.2.607l3,3.929A1,1,0,0,0,46,34h0a.994.994,0,0,0,.795-.4l3-3.967a.994.994,0,0,0,.2-.6V22H48Z"/></symbol><symbol id="dat" viewBox="0 0 64 64"><title>dat</title><path d="m55 15h-1v-6a3 3 0 0 0 -3-3h-1v-1a3 3 0 0 0 -3-3h-38a3 3 0 0 0 -3 3v50a3 3 0 0 0 3 3h1v1a3 3 0 0 0 3 3h38a3 3 0 0 0 3-3v-18h1a3 3 0 0 0 3-3v-20a3 3 0 0 0 -3-3zm-4-7a1 1 0 0 1 1 1v6h-2v-7zm-37-4h2v2.7l-.168-.252a1.039 1.039 0 0 0 -1.664 0l-.168.252zm-6 51v-50a1 1 0 0 1 1-1h3v6a1 1 0 0 0 1.832.555l1.168-1.755 1.168 1.752a1 1 0 0 0 1.832-.552v-6h29a1 1 0 0 1 1 1v10h-31a3 3 0 0 0 -3 3v20a3 3 0 0 0 3 3h31v14a1 1 0 0 1 -1 1h-38a1 1 0 0 1 -1-1zm44 4a1 1 0 0 1 -1 1h-38a1 1 0 0 1 -1-1v-1h35a3 3 0 0 0 3-3v-14h2zm4-21a1 1 0 0 1 -1 1h-38a1 1 0 0 1 -1-1v-20a1 1 0 0 1 1-1h38a1 1 0 0 1 1 1z"/><path d="m28 22h-4a1 1 0 0 0 -1 1v10a1 1 0 0 0 1 1h4a3 3 0 0 0 3-3v-6a3 3 0 0 0 -3-3zm1 9a1 1 0 0 1 -1 1h-3v-8h3a1 1 0 0 1 1 1z"/><path d="m38 22h-2a3 3 0 0 0 -3 3v9h2v-5h4v5h2v-9a3 3 0 0 0 -3-3zm-3 5v-2a1 1 0 0 1 1-1h2a1 1 0 0 1 1 1v2z"/><path d="m43 24h3v10h2v-10h3v-2h-8z"/></symbol><symbol id="pub" viewBox="0 0 64 64"><title>pub</title><path d="M55,15H54V9a3,3,0,0,0-3-3H50V5a3,3,0,0,0-3-3H9A3,3,0,0,0,6,5V55a3,3,0,0,0,3,3h1v1a3,3,0,0,0,3,3H51a3,3,0,0,0,3-3V41h1a3,3,0,0,0,3-3V18A3,3,0,0,0,55,15ZM51,8a1,1,0,0,1,1,1v6H50V8ZM14,4h2V6.7l-.168-.252a1.039,1.039,0,0,0-1.664,0L14,6.7ZM8,55V5A1,1,0,0,1,9,4h3v6a1,1,0,0,0,1.832.555L15,8.8l1.168,1.752A1,1,0,0,0,18,10V4H47a1,1,0,0,1,1,1V15H17a3,3,0,0,0-3,3V38a3,3,0,0,0,3,3H48V55a1,1,0,0,1-1,1H9A1,1,0,0,1,8,55Zm44,4a1,1,0,0,1-1,1H13a1,1,0,0,1-1-1V58H47a3,3,0,0,0,3-3V41h2Zm4-21a1,1,0,0,1-1,1H17a1,1,0,0,1-1-1V18a1,1,0,0,1,1-1H55a1,1,0,0,1,1,1Z"/><path d="M27,22H23a1,1,0,0,0-1,1V34h2V29h3a3,3,0,0,0,3-3V25A3,3,0,0,0,27,22Zm1,4a1,1,0,0,1-1,1H24V24h3a1,1,0,0,1,1,1Z"/><path d="M38,31a1,1,0,0,1-1,1H35a1,1,0,0,1-1-1V22H32v9a3,3,0,0,0,3,3h2a3,3,0,0,0,3-3V22H38Z"/><path d="M47,22H43a1,1,0,0,0-1,1V33a1,1,0,0,0,1,1h4a3,3,0,0,0,3-3V30a2.981,2.981,0,0,0-.78-2A2.981,2.981,0,0,0,50,26V25A3,3,0,0,0,47,22Zm-3,2h3a1,1,0,0,1,1,1v1a1,1,0,0,1-1,1H44Zm4,7a1,1,0,0,1-1,1H44V29h3a1,1,0,0,1,1,1Z"/></symbol></svg>